<svg width="24" height="25" viewBox="0 0 24 25" fill="none" xmlns="http://www.w3.org/2000/svg">
<path d="M7.8 2.5H16.2C19.4 2.5 22 5.1 22 8.3V16.7C22 18.2383 21.3889 19.7135 20.3012 20.8012C19.2135 21.8889 17.7383 22.5 16.2 22.5H7.8C4.6 22.5 2 19.9 2 16.7V8.3C2 6.76174 2.61107 5.28649 3.69878 4.19878C4.78649 3.11107 6.26174 2.5 7.8 2.5V2.5ZM7.6 4.5C6.64522 4.5 5.72955 4.87928 5.05442 5.55442C4.37928 6.22955 4 7.14522 4 8.1V16.9C4 18.89 5.61 20.5 7.6 20.5H16.4C17.3548 20.5 18.2705 20.1207 18.9456 19.4456C19.6207 18.7705 20 17.8548 20 16.9V8.1C20 6.11 18.39 4.5 16.4 4.5H7.6ZM17.25 6C17.5815 6 17.8995 6.1317 18.1339 6.36612C18.3683 6.60054 18.5 6.91848 18.5 7.25C18.5 7.58152 18.3683 7.89946 18.1339 8.13388C17.8995 8.3683 17.5815 8.5 17.25 8.5C16.9185 8.5 16.6005 8.3683 16.3661 8.13388C16.1317 7.89946 16 7.58152 16 7.25C16 6.91848 16.1317 6.60054 16.3661 6.36612C16.6005 6.1317 16.9185 6 17.25 6ZM12 7.5C13.3261 7.5 14.5979 8.02678 15.5355 8.96447C16.4732 9.90215 17 11.1739 17 12.5C17 13.8261 16.4732 15.0979 15.5355 16.0355C14.5979 16.9732 13.3261 17.5 12 17.5C10.6739 17.5 9.40215 16.9732 8.46447 16.0355C7.52678 15.0979 7 13.8261 7 12.5C7 11.1739 7.52678 9.90215 8.46447 8.96447C9.40215 8.02678 10.6739 7.5 12 7.5V7.5ZM12 9.5C11.2044 9.5 10.4413 9.81607 9.87868 10.3787C9.31607 10.9413 9 11.7044 9 12.5C9 13.2956 9.31607 14.0587 9.87868 14.6213C10.4413 15.1839 11.2044 15.5 12 15.5C12.7956 15.5 13.5587 15.1839 14.1213 14.6213C14.6839 14.0587 15 13.2956 15 12.5C15 11.7044 14.6839 10.9413 14.1213 10.3787C13.5587 9.81607 12.7956 9.5 12 9.5Z" fill="white"/>
</svg>
